<?xml version="1.0" standalone="no"?>
<!DOCTYPE svg PUBLIC "-//W3C//DTD SVG 20010904//EN"
 "http://www.w3.org/TR/2001/REC-SVG-20010904/DTD/svg10.dtd">
<svg version="1.0" xmlns="http://www.w3.org/2000/svg"
 width="300.000000pt" height="233.000000pt" viewBox="0 0 300.000000 233.000000"
 preserveAspectRatio="xMidYMid meet">
<metadata>
Created by potrace 1.16, written by Peter Selinger 2001-2019
</metadata>
<g transform="translate(0.000000,233.000000) scale(0.100000,-0.100000)"
fill="#000000" stroke="none">
<path d="M1318 2058 c-177 -149 -377 -317 -444 -374 l-120 -102 -91 -159 c-50
-87 -131 -228 -180 -313 -349 -605 -483 -841 -483 -850 0 -7 118 -10 345 -10
l345 0 29 58 c16 31 72 149 124 262 52 113 114 246 137 295 52 111 163 349
200 430 15 33 57 123 93 200 36 77 110 237 165 355 55 118 127 273 161 344 33
70 61 130 61 132 0 16 -56 -28 -342 -268z"/>
<path d="M1646 1898 c-55 -150 -139 -383 -187 -518 -49 -134 -89 -249 -89
-255 0 -9 144 -183 578 -700 73 -87 131 -159 129 -161 -1 -2 -117 -23 -257
-48 -140 -25 -280 -50 -310 -56 -30 -6 -145 -26 -255 -45 -110 -19 -225 -39
-255 -45 -214 -39 -278 -50 -297 -50 -13 0 -23 -4 -23 -10 0 -7 393 -10 1160
-10 638 0 1160 2 1160 5 0 3 -113 203 -252 443 -138 240 -327 568 -419 727
-92 160 -233 405 -314 545 -81 140 -172 299 -203 353 -31 53 -59 97 -62 97 -3
0 -50 -123 -104 -272z"/>
</g>
</svg>
