<?xml version="1.0" standalone="no"?>
<!DOCTYPE svg PUBLIC "-//W3C//DTD SVG 20010904//EN"
 "http://www.w3.org/TR/2001/REC-SVG-20010904/DTD/svg10.dtd">
<svg version="1.0" xmlns="http://www.w3.org/2000/svg"
 width="267.000000pt" height="300.000000pt" viewBox="0 0 267.000000 300.000000"
 preserveAspectRatio="xMidYMid meet">
<metadata>
Created by potrace 1.16, written by Peter Selinger 2001-2019
</metadata>
<g transform="translate(0.000000,300.000000) scale(0.100000,-0.100000)"
fill="#000000" stroke="none">
<path d="M2430 2139 c-113 -65 -212 -125 -220 -132 -19 -16 -437 -257 -446
-257 -19 0 -844 -485 -844 -496 0 -25 85 -118 148 -161 93 -63 180 -87 301
-80 114 6 181 29 263 90 55 41 128 120 128 138 0 5 4 9 10 9 15 0 430 -242
430 -250 0 -15 -94 -136 -149 -193 -115 -119 -270 -212 -438 -264 -80 -24
-103 -27 -263 -27 -190 -1 -225 5 -384 66 -158 61 -345 213 -443 361 l-45 68
-46 -26 c-193 -108 -402 -231 -402 -238 -1 -34 109 -106 530 -348 250 -143
507 -291 570 -327 101 -59 122 -67 177 -70 34 -3 78 -1 96 2 43 8 1151 646
1196 689 74 71 71 31 71 805 0 583 -2 698 -14 727 -8 19 -16 35 -18 34 -2 0
-95 -54 -208 -120z m-322 -421 l3 -68 69 0 70 0 0 70 0 70 35 0 35 0 0 -70 0
-70 70 0 70 0 0 -40 0 -40 -70 0 -71 0 3 -67 3 -68 68 -3 67 -3 0 -34 0 -35
-70 0 -70 0 0 -70 0 -70 -35 0 -35 0 0 70 0 70 -70 0 -70 0 0 -70 0 -70 -35 0
-35 0 0 70 0 70 -70 0 -70 0 0 35 0 34 68 3 67 3 3 68 3 67 -71 0 -70 0 0 40
0 40 70 0 70 0 0 71 0 70 33 -3 32 -3 3 -67z"/>
<path d="M2110 1500 l0 -71 68 3 67 3 3 68 3 67 -71 0 -70 0 0 -70z"/>
</g>
</svg>
