<?xml version="1.0" standalone="no"?>
<!DOCTYPE svg PUBLIC "-//W3C//DTD SVG 20010904//EN"
 "http://www.w3.org/TR/2001/REC-SVG-20010904/DTD/svg10.dtd">
<svg version="1.0" xmlns="http://www.w3.org/2000/svg"
 width="260.000000pt" height="300.000000pt" viewBox="0 0 260.000000 300.000000"
 preserveAspectRatio="xMidYMid meet">
<metadata>
Created by potrace 1.16, written by Peter Selinger 2001-2019
</metadata>
<g transform="translate(0.000000,300.000000) scale(0.100000,-0.100000)"
fill="#000000" stroke="none">
<path d="M642 2628 l-642 -372 0 -756 0 -756 646 -373 c421 -244 652 -371 664
-368 10 3 305 170 654 372 l636 367 0 758 0 758 -637 368 c-350 202 -646 369
-657 371 -13 2 -257 -134 -664 -369z m1258 -84 l600 -347 0 -697 0 -697 -599
-346 -599 -347 -601 348 -601 347 0 695 0 695 598 347 c328 190 598 347 600
347 1 1 273 -155 602 -345z"/>
<path d="M1421 2274 c-36 -7 -106 -34 -155 -59 -358 -177 -625 -613 -578 -944
50 -350 301 -588 582 -550 83 12 118 23 211 70 118 59 289 205 289 247 0 29
-35 18 -93 -29 -202 -162 -414 -157 -575 16 -113 120 -182 304 -182 481 0 266
131 531 307 619 51 27 68 30 148 30 81 0 95 -3 138 -28 161 -95 170 -363 18
-517 -25 -25 -56 -53 -69 -61 -20 -12 -21 -16 -10 -32 13 -17 18 -16 88 19
177 89 310 290 310 470 0 213 -176 323 -429 268z"/>
</g>
</svg>
