<?xml version="1.0" standalone="no"?>
<!DOCTYPE svg PUBLIC "-//W3C//DTD SVG 20010904//EN"
 "http://www.w3.org/TR/2001/REC-SVG-20010904/DTD/svg10.dtd">
<svg version="1.0" xmlns="http://www.w3.org/2000/svg"
 width="263.000000pt" height="300.000000pt" viewBox="0 0 263.000000 300.000000"
 preserveAspectRatio="xMidYMid meet">
<metadata>
Created by potrace 1.16, written by Peter Selinger 2001-2019
</metadata>
<g transform="translate(0.000000,300.000000) scale(0.100000,-0.100000)"
fill="#000000" stroke="none">
<path d="M0 2968 c0 -40 210 -2639 214 -2653 4 -11 1076 -315 1111 -315 17 0
1064 298 1074 306 4 3 230 2605 231 2657 l0 37 -1315 0 -1315 0 0 -32z m2140
-701 l0 -163 -361 -149 -361 -150 332 -3 331 -2 -6 -78 c-4 -42 -23 -273 -44
-512 l-36 -434 -334 -106 -333 -106 -343 96 c-189 52 -346 98 -349 101 -6 6
-46 436 -46 491 l0 28 164 0 163 0 13 -124 13 -124 176 -44 176 -43 189 37
c104 20 190 39 191 40 1 2 10 99 21 216 l19 212 -572 0 c-315 0 -573 3 -573 8
0 4 -9 74 -21 155 -12 84 -18 152 -13 157 5 4 175 79 378 166 l369 159 -385 3
-384 2 -18 133 c-10 72 -21 147 -23 165 l-6 32 837 0 836 0 0 -163z"/>
</g>
</svg>
