<svg width="2189" height="418" viewBox="0 0 2189 418" fill="none" xmlns="http://www.w3.org/2000/svg">
<path d="M107.937 116.25V178.071H232.747V221.183C232.747 234.59 227.421 247.447 217.943 256.927C208.465 266.407 195.61 271.733 182.206 271.733H107.937V407.853H0V19.4084H247.167V65.6819C247.167 79.0885 241.843 91.946 232.364 101.426C222.886 110.906 210.03 116.232 196.626 116.232V116.232L107.937 116.25Z" fill="#3F3F3F"/>
<path d="M983.83 0V407.862H907.462L897.731 385.606C872.429 406.825 840.383 418.309 807.365 417.991C715.452 417.991 649.947 351.157 649.947 258.038C649.947 164.92 715.434 98.3529 807.356 98.3529C833.632 98.1564 859.431 105.365 881.799 119.153V0H983.83ZM888.24 258.047C888.579 249.078 887.087 240.134 883.856 231.761C880.624 223.388 875.721 215.761 869.445 209.346C863.168 202.931 855.65 197.863 847.35 194.451C839.05 191.038 830.142 189.354 821.169 189.499C812.197 189.356 803.291 191.043 794.993 194.456C786.694 197.87 779.178 202.938 772.903 209.353C766.627 215.767 761.724 223.393 758.493 231.765C755.261 240.137 753.768 249.08 754.106 258.047C753.768 267.015 755.261 275.958 758.493 284.33C761.724 292.702 766.627 300.328 772.903 306.742C779.178 313.157 786.694 318.225 794.993 321.639C803.291 325.052 812.197 326.739 821.169 326.596C830.142 326.74 839.05 325.054 847.35 321.641C855.65 318.227 863.168 313.158 869.445 306.743C875.721 300.327 880.625 292.7 883.857 284.326C887.088 275.952 888.579 267.008 888.24 258.038V258.047Z" fill="#3F3F3F"/>
<path d="M1486.93 108.215V274.738C1486.93 306.072 1470.25 324.974 1442.7 324.974C1415.15 324.974 1398.13 306.367 1398.13 274.738V108.215H1173.72V20.6167H1152.53L1018.23 163.566V187.693H1073.08V300.755C1073.08 367.35 1113.35 407.854 1179.6 407.854H1250.55V317.454H1210.93C1206.29 317.903 1201.6 317.325 1197.21 315.759C1192.81 314.194 1188.82 311.68 1185.5 308.397C1182.19 305.113 1179.64 301.14 1178.03 296.76C1176.43 292.379 1175.8 287.699 1176.21 283.051V187.712H1294.8V279.217C1294.8 363.083 1354.06 417.678 1442.56 417.678C1531.02 417.678 1589.99 363.064 1589.99 279.217V108.215H1486.93Z" fill="#3F3F3F"/>
<path d="M1846.21 106.776V201.231H1806.14C1769.61 201.231 1754.31 217.257 1754.31 255.485V407.862H1651.11V108.195H1720.22L1736.31 141.447C1757.44 117.006 1783.18 106.767 1818.84 106.767L1846.21 106.776Z" fill="#3F3F3F"/>
<path d="M2188.97 255.199C2188.92 264.347 2188.21 273.48 2186.84 282.525H1964.38C1971.13 316.891 1992.95 334.669 2025.55 334.669C2036.26 335.24 2046.93 332.937 2056.45 327.996C2065.98 323.055 2074.01 315.658 2079.71 306.569H2182.44C2161.37 374.952 2100.75 417.686 2025.58 417.686C1932.1 417.686 1862.85 349.359 1862.85 257.807C1862.85 165.943 1931.54 98.371 2025.58 98.371C2122.15 98.371 2189.02 167.279 2189.02 255.172L2188.97 255.199ZM1966.2 225.367H2087.34C2084.06 211.679 2076.08 199.574 2064.81 191.155C2053.53 182.737 2039.65 178.537 2025.6 179.287C2011.84 178.659 1998.31 182.951 1987.42 191.394C1976.54 199.838 1969.01 211.881 1966.2 225.367V225.367Z" fill="#3F3F3F"/>
<path d="M283.767 258.029C283.767 165.141 354.063 98.39 451.745 98.39C549.114 98.39 619.714 165.151 619.714 258.029C619.714 350.604 549.114 417.678 451.745 417.678C354.063 417.678 283.767 350.604 283.767 258.029ZM451.745 324.983C489.368 324.983 516.356 297.676 516.356 258.057C516.356 218.677 489.368 191.13 451.745 191.13C414.123 191.13 387.143 218.41 387.143 258.029C387.143 297.649 414.132 324.956 451.754 324.956L451.745 324.983Z" fill="#3F3F3F"/>
<path d="M480.594 75.8565H452.777C452.777 56.0729 460.634 37.0996 474.62 23.1104C488.607 9.12133 507.578 1.26233 527.358 1.26233H555.175C555.175 21.0459 547.318 40.0192 533.332 54.0084C519.345 67.9975 500.374 75.8565 480.594 75.8565V75.8565Z" fill="#00FF80"/>
</svg>
