<?xml version="1.0" standalone="no"?>
<!DOCTYPE svg PUBLIC "-//W3C//DTD SVG 20010904//EN"
 "http://www.w3.org/TR/2001/REC-SVG-20010904/DTD/svg10.dtd">
<svg version="1.0" xmlns="http://www.w3.org/2000/svg"
 width="800.000000pt" height="800.000000pt" viewBox="0 0 800.000000 800.000000"
 preserveAspectRatio="xMidYMid meet">
<metadata>
Created by potrace 1.16, written by Peter Selinger 2001-2019
</metadata>
<g transform="translate(0.000000,800.000000) scale(0.100000,-0.100000)"
fill="#000000" stroke="none">
<path d="M4373 6958 c13 -24 173 -302 355 -618 181 -316 558 -971 837 -1454
282 -491 504 -887 502 -895 -3 -9 -234 -414 -515 -901 l-511 -885 -1042 0
-1042 0 -511 892 c-281 491 -513 892 -516 893 -3 0 -159 -268 -348 -596 l-343
-595 452 -787 c248 -433 466 -807 483 -832 46 -65 144 -135 222 -160 65 -20
85 -20 1604 -20 1503 0 1539 0 1601 20 75 23 154 74 200 128 39 47 496 835
1327 2287 113 198 214 382 225 410 42 111 29 272 -31 380 -16 28 -126 221
-246 430 -121 209 -289 502 -374 650 -85 149 -252 439 -370 645 -119 206 -277
483 -353 615 -75 132 -154 259 -174 283 -51 59 -128 109 -204 132 -60 19 -94
20 -658 20 l-595 0 25 -42z"/>
</g>
</svg>
