<?xml version="1.0" standalone="no"?>
<!DOCTYPE svg PUBLIC "-//W3C//DTD SVG 20010904//EN"
 "http://www.w3.org/TR/2001/REC-SVG-20010904/DTD/svg10.dtd">
<svg version="1.0" xmlns="http://www.w3.org/2000/svg"
 width="1200.000000pt" height="1200.000000pt" viewBox="0 0 1200.000000 1200.000000"
 preserveAspectRatio="xMidYMid meet">
<metadata>
Created by potrace 1.16, written by Peter Selinger 2001-2019
</metadata>
<g transform="translate(0.000000,1200.000000) scale(0.100000,-0.100000)"
fill="#000000" stroke="none">
<path d="M5868 11680 c-103 -18 -209 -63 -308 -131 -30 -20 -296 -279 -590
-573 l-535 -536 656 -656 656 -656 97 22 c167 39 382 18 534 -52 263 -121 456
-374 502 -661 16 -98 8 -259 -18 -349 l-19 -66 632 -632 632 -631 64 16 c281
73 577 3 794 -189 375 -331 391 -906 35 -1256 -145 -143 -315 -226 -517 -250
-265 -32 -552 80 -738 290 -213 241 -269 547 -161 885 6 16 -98 125 -584 610
l-590 590 0 -1552 0 -1551 53 -32 c199 -122 335 -300 397 -520 27 -93 36 -260
21 -358 -43 -278 -222 -519 -476 -642 -148 -72 -203 -85 -380 -85 -128 0 -162
4 -230 24 -294 85 -525 321 -607 617 -28 103 -31 325 -5 420 70 254 232 458
451 566 l66 32 0 1566 0 1566 -62 29 c-168 80 -321 241 -402 423 -89 202 -99
443 -25 636 l19 51 -647 647 -648 648 -1728 -1727 c-1214 -1214 -1741 -1747
-1771 -1793 -87 -131 -120 -241 -120 -410 -1 -176 49 -324 153 -454 28 -33
1181 -1191 2563 -2573 1864 -1863 2529 -2522 2577 -2552 259 -165 598 -156
840 24 25 18 1185 1174 2577 2567 l2532 2533 46 95 c64 132 80 201 80 340 0
169 -42 301 -138 433 -24 34 -1184 1201 -2578 2592 -1938 1937 -2546 2538
-2590 2564 -159 92 -344 129 -510 101z"/>
</g>
</svg>
