<?xml version="1.0" standalone="no"?>
<!DOCTYPE svg PUBLIC "-//W3C//DTD SVG 20010904//EN"
 "http://www.w3.org/TR/2001/REC-SVG-20010904/DTD/svg10.dtd">
<svg version="1.0" xmlns="http://www.w3.org/2000/svg"
 width="2048.000000pt" height="2048.000000pt" viewBox="0 0 2048.000000 2048.000000"
 preserveAspectRatio="xMidYMid meet">
<metadata>
Created by potrace 1.16, written by Peter Selinger 2001-2019
</metadata>
<g transform="translate(0.000000,2048.000000) scale(0.100000,-0.100000)"
fill="#000000" stroke="none">
<path d="M10035 20258 c-451 -51 -882 -282 -1169 -627 -356 -427 -493 -991
-375 -1541 12 -52 21 -100 22 -107 1 -7 -922 -546 -2052 -1198 l-2053 -1186
-77 69 c-151 135 -261 212 -411 287 -289 145 -552 202 -875 192 -274 -10 -487
-62 -730 -181 -292 -143 -516 -337 -696 -605 -452 -671 -397 -1563 134 -2180
204 -238 488 -425 794 -523 l133 -43 0 -2375 0 -2375 -121 -39 c-66 -21 -182
-69 -257 -107 -532 -268 -883 -764 -968 -1366 -23 -168 -15 -423 20 -589 143
-683 645 -1210 1315 -1380 208 -53 458 -67 674 -39 377 49 715 208 990 465
l73 68 2055 -1185 c1130 -652 2055 -1186 2056 -1187 1 -1 -5 -26 -13 -56 -51
-197 -67 -472 -40 -680 69 -520 351 -974 786 -1262 422 -280 949 -367 1447
-239 335 86 672 296 894 556 395 462 530 1054 378 1652 -12 46 -20 86 -18 88
2 2 921 533 2042 1180 l2038 1177 92 -89 c150 -145 294 -245 472 -329 267
-126 542 -182 840 -171 171 6 284 24 435 68 645 187 1115 698 1262 1371 20 91
22 131 22 348 0 217 -2 257 -22 349 -79 360 -227 643 -466 890 -218 224 -462
377 -748 468 l-118 38 0 2375 0 2375 133 43 c941 303 1456 1327 1141 2272
-243 730 -930 1221 -1707 1220 -282 -1 -548 -65 -808 -195 -147 -74 -259 -152
-411 -288 l-77 -69 -83 48 c-902 519 -4015 2318 -4020 2323 -4 3 0 33 8 65 70
269 70 611 0 887 -149 586 -590 1064 -1158 1254 -248 83 -526 112 -783 83z
m-1039 -3077 c-2 -3 -1212 -2098 -2688 -4656 -1477 -2557 -2689 -4657 -2694
-4666 -7 -12 -16 -14 -41 -7 l-33 9 0 2377 0 2378 129 43 c864 285 1375 1172
1190 2064 -12 56 -22 107 -23 114 0 7 926 548 2059 1202 l2060 1190 22 -21
c12 -12 21 -24 19 -27z m4757 -1241 c1608 -929 1896 -1098 1891 -1113 -19 -61
-45 -220 -55 -334 -27 -304 32 -617 171 -909 209 -441 584 -771 1051 -925
l129 -43 0 -2378 0 -2378 -25 -6 c-13 -3 -29 -4 -34 -2 -6 1 -1223 2102 -2704
4668 l-2694 4665 19 22 20 21 167 -96 c92 -54 1020 -590 2064 -1192z m-3875
783 c118 -25 144 -27 362 -27 219 0 244 1 364 27 71 15 133 24 137 20 4 -4
1218 -2105 2697 -4668 l2690 -4660 -34 -33 c-180 -174 -348 -453 -431 -714
l-38 -118 -5385 0 -5385 0 -39 121 c-75 235 -223 489 -387 663 l-76 81 2695
4668 c1482 2567 2697 4667 2699 4667 2 0 61 -12 131 -27z m5766 -11085 c12
-42 13 -55 3 -64 -14 -13 -4050 -2342 -4073 -2351 -11 -4 -40 18 -92 69 -98
95 -156 142 -262 211 -187 121 -395 207 -614 253 -165 35 -448 44 -616 20
-375 -54 -718 -219 -976 -468 l-60 -59 -2057 1188 c-1468 847 -2057 1192
-2057 1204 0 10 3 24 6 33 6 15 490 16 5394 16 l5388 0 16 -52z"/>
</g>
</svg>
