<?xml version="1.0" standalone="no"?>
<!DOCTYPE svg PUBLIC "-//W3C//DTD SVG 20010904//EN"
 "http://www.w3.org/TR/2001/REC-SVG-20010904/DTD/svg10.dtd">
<svg version="1.0" xmlns="http://www.w3.org/2000/svg"
 width="264.000000pt" height="300.000000pt" viewBox="0 0 264.000000 300.000000"
 preserveAspectRatio="xMidYMid meet">
<metadata>
Created by potrace 1.16, written by Peter Selinger 2001-2019
</metadata>
<g transform="translate(0.000000,300.000000) scale(0.100000,-0.100000)"
fill="#000000" stroke="none">
<path d="M660 2651 c-423 -245 -613 -360 -630 -382 l-25 -32 0 -736 0 -736 23
-31 c17 -22 204 -136 625 -380 730 -423 648 -397 862 -274 816 468 1081 627
1102 659 l23 34 0 727 0 727 -23 34 c-26 39 -14 31 -717 439 -501 291 -505
293 -570 297 l-65 4 -605 -350z m1185 -131 c600 -347 583 -336 600 -371 13
-25 15 -114 13 -659 l-3 -630 -30 -29 c-16 -16 -262 -163 -545 -327 -468 -271
-519 -298 -560 -298 -41 0 -94 28 -560 298 -283 164 -528 311 -545 327 l-30
29 -3 631 c-2 614 -2 632 17 663 20 32 100 80 871 524 204 117 217 123 260
119 36 -4 135 -57 515 -277z"/>
<path d="M789 2449 c-277 -160 -514 -300 -527 -312 l-22 -20 0 -617 0 -617 22
-20 c13 -11 248 -150 523 -309 395 -228 507 -289 535 -289 28 0 141 61 541
293 278 161 515 302 525 313 18 20 19 47 19 630 l0 609 -25 24 c-20 20 -893
530 -1007 590 -18 9 -43 16 -56 16 -12 0 -250 -131 -528 -291z m674 -424 c-3
-86 -27 -187 -56 -240 l-23 -40 -86 -3 -87 -3 -25 43 c-37 63 -80 278 -61 308
4 7 62 10 173 8 l167 -3 -2 -70z m-343 -175 c0 -7 -145 -10 -415 -10 -270 0
-415 3 -415 10 0 7 145 10 415 10 270 0 415 -3 415 -10z m1230 0 c0 -7 -153
-10 -440 -10 -287 0 -440 3 -440 10 0 7 153 10 440 10 287 0 440 -3 440 -10z
m-1334 -179 c123 -56 135 -229 20 -300 -45 -28 -138 -29 -184 -1 -86 52 -105
173 -40 255 26 33 91 65 133 65 17 0 48 -9 71 -19z m450 0 c52 -24 57 -31 35
-60 l-18 -24 -46 22 c-55 26 -87 21 -122 -21 -59 -70 -14 -178 73 -178 24 0
49 8 64 20 25 19 25 19 47 -4 20 -22 20 -23 4 -38 -34 -29 -62 -38 -119 -38
-100 0 -164 65 -164 165 0 130 126 210 246 156z m-1021 -61 c25 -38 47 -70 49
-70 3 0 25 32 50 70 42 65 48 70 81 70 l35 0 0 -165 0 -165 -35 0 -35 0 0 107
0 108 -45 -68 c-25 -37 -47 -67 -50 -67 -3 0 -25 30 -50 67 l-45 68 0 -108 0
-107 -35 0 -35 0 0 165 0 165 35 0 c33 0 38 -5 80 -70z m1245 5 l0 -65 70 0
70 0 0 65 0 65 35 0 35 0 0 -165 0 -165 -35 0 -35 0 0 64 0 64 -70 4 -70 3 0
-67 0 -68 -35 0 -35 0 0 165 0 165 35 0 35 0 0 -65z m581 -98 c38 -87 69 -160
69 -162 0 -3 -15 -5 -34 -5 -30 0 -36 4 -50 40 l-16 40 -71 0 -70 0 -17 -40
c-15 -35 -21 -40 -49 -40 -18 0 -33 2 -33 4 0 2 22 55 49 118 100 231 87 210
122 206 31 -3 34 -8 100 -161z m79 -272 c0 -13 -121 -15 -1030 -15 -909 0
-1030 2 -1030 15 0 13 121 15 1030 15 909 0 1030 -2 1030 -15z"/>
<path d="M1180 2016 c0 -13 3 -44 6 -69 l7 -47 76 3 c42 2 87 9 101 17 14 8
28 13 33 12 4 -1 7 23 7 53 l0 55 -115 0 c-114 0 -115 0 -115 -24z"/>
<path d="M903 1615 c-56 -24 -78 -96 -48 -155 19 -37 43 -50 93 -50 42 0 73
24 91 72 20 54 -10 117 -66 139 -30 11 -31 11 -70 -6z"/>
</g>
</svg>
