<?xml version="1.0" standalone="no"?>
<!DOCTYPE svg PUBLIC "-//W3C//DTD SVG 20010904//EN"
 "http://www.w3.org/TR/2001/REC-SVG-20010904/DTD/svg10.dtd">
<svg version="1.0"
  xmlns="http://www.w3.org/2000/svg" width="840.000000pt" height="870.000000pt" viewBox="0 0 840.000000 870.000000" preserveAspectRatio="xMidYMid meet">

  <g transform="translate(0.000000,870.000000) scale(0.100000,-0.100000)" fill="#00608a" stroke="none">
    <path d="M1653 8265 c-109 -27 -183 -91 -237 -205 -27 -58 -30 -75 -30 -155 0
-164 48 -261 259 -530 133 -170 236 -318 278 -400 14 -28 37 -96 52 -150 15
-55 44 -147 65 -205 21 -58 54 -152 75 -210 99 -276 227 -518 340 -641 74 -81
85 -111 56 -167 -11 -22 -30 -82 -41 -133 -12 -52 -34 -141 -50 -199 -16 -58
-32 -123 -35 -145 -4 -22 -11 -53 -15 -70 -5 -16 -15 -86 -21 -155 -45 -468
50 -918 254 -1208 139 -196 291 -272 429 -213 108 46 149 117 179 309 44 288
58 364 73 380 10 10 32 -27 105 -175 96 -197 133 -259 214 -358 77 -95 283
-300 392 -388 55 -45 147 -127 205 -183 95 -91 159 -144 173 -144 3 0 -49 55
-117 123 -134 134 -167 175 -308 382 -263 385 -555 946 -633 1213 -10 35 -23
66 -28 69 -6 3 -20 -5 -31 -19 -169 -202 -209 -273 -250 -448 -19 -78 -52
-310 -61 -432 -8 -99 -18 -113 -67 -103 -43 10 -136 105 -171 175 -70 143
-114 274 -149 446 -20 97 -23 138 -22 379 0 336 9 392 119 690 47 128 75 237
75 292 0 60 -31 115 -110 198 -92 95 -189 252 -255 410 -20 48 -80 227 -130
385 -46 148 -90 269 -126 348 -16 35 -29 66 -29 69 0 13 -196 298 -271 393
-142 180 -174 230 -209 324 -56 145 16 247 164 232 55 -5 145 -30 201 -56 11
-5 47 -21 80 -35 187 -82 345 -173 430 -246 33 -28 77 -63 99 -77 42 -28 60
-31 376 -51 85 -6 161 -13 170 -17 8 -3 40 -12 70 -20 135 -36 342 -129 542
-246 410 -238 775 -554 1096 -950 233 -286 447 -641 536 -888 21 -58 53 -138
72 -178 19 -41 34 -75 34 -78 0 -2 45 -96 100 -210 55 -114 100 -208 100 -210
0 -2 17 -41 39 -86 21 -46 53 -117 71 -158 66 -151 167 -347 224 -432 43 -65
71 -95 107 -117 26 -17 144 -62 261 -101 117 -40 227 -77 243 -85 17 -7 59
-23 95 -36 97 -34 189 -90 452 -274 86 -60 204 -141 262 -178 103 -67 200
-158 193 -181 -2 -7 -68 -14 -187 -18 -303 -13 -439 -33 -610 -93 -58 -20
-130 -43 -162 -52 -31 -8 -71 -27 -89 -43 l-33 -27 38 -84 c67 -147 169 -277
291 -372 118 -92 242 -179 310 -218 64 -36 73 -41 295 -147 80 -38 177 -88
215 -112 90 -55 317 -223 389 -289 31 -28 58 -51 60 -51 3 0 -9 30 -25 67 -23
51 -52 90 -113 153 -45 47 -109 116 -142 155 -83 97 -184 195 -289 279 -83 67
-210 156 -222 156 -4 0 -22 11 -188 118 -38 25 -91 62 -116 83 -52 43 -124
142 -115 157 3 6 25 13 49 17 23 4 85 18 137 32 147 38 260 60 346 68 86 7
255 39 319 59 22 7 61 19 88 27 59 17 61 34 9 97 -22 26 -64 79 -95 119 -64
81 -296 279 -527 450 -239 177 -386 266 -585 353 -27 12 -68 30 -90 40 -22 10
-69 32 -105 48 -36 16 -89 38 -119 48 -75 26 -118 79 -200 248 -294 602 -319
655 -361 751 -16 36 -46 103 -85 190 -7 17 -46 111 -85 210 -87 219 -138 318
-261 506 -419 637 -887 1082 -1576 1497 -163 99 -265 146 -368 171 -22 5 -92
23 -155 39 -147 38 -224 49 -389 57 l-135 5 -73 58 c-110 86 -187 141 -197
142 -5 0 -17 6 -25 14 -21 19 -220 117 -301 149 -199 78 -363 102 -487 72z"/>
    <path d="M2763 7123 c-20 -4 -22 -7 -11 -26 6 -12 38 -53 71 -92 41 -47 78
-107 115 -183 52 -111 54 -113 73 -96 35 32 58 79 68 142 9 59 8 65 -19 120
-20 39 -47 71 -84 100 -53 41 -57 42 -123 41 -37 -1 -78 -4 -90 -6z"/>
  </g>
</svg>
