<?xml version="1.0" standalone="no"?>
<!DOCTYPE svg PUBLIC "-//W3C//DTD SVG 20010904//EN"
 "http://www.w3.org/TR/2001/REC-SVG-20010904/DTD/svg10.dtd">
<svg version="1.0" xmlns="http://www.w3.org/2000/svg"
 width="464.000000pt" height="537.000000pt" viewBox="0 0 464.000000 537.000000"
 preserveAspectRatio="xMidYMid meet">
<metadata>
Created by potrace 1.16, written by Peter Selinger 2001-2019
</metadata>
<g transform="translate(0.000000,537.000000) scale(0.100000,-0.100000)"
fill="#000000" stroke="none">
<path d="M2676 3553 c-14 -43 -75 -238 -136 -433 -155 -494 -207 -659 -245
-780 -19 -58 -57 -179 -85 -270 -28 -91 -55 -175 -60 -187 -9 -22 -14 -23
-144 -23 -112 0 -135 3 -139 15 -4 13 -5 13 -3 0 0 -10 98 -67 255 -150 l255
-134 88 87 c127 126 127 126 198 197 36 36 69 68 73 72 4 5 36 37 70 73 106
111 171 164 226 184 29 10 50 20 48 23 -3 2 -56 -16 -118 -41 -62 -26 -117
-46 -121 -46 -4 0 -8 78 -8 174 l0 174 28 10 c15 6 140 50 277 97 138 47 258
89 267 93 12 5 -81 40 -277 107 l-295 99 0 177 0 178 273 -111 c149 -60 359
-146 466 -189 107 -44 196 -77 198 -75 3 2 -12 10 -31 17 -20 7 -36 16 -36 21
0 4 25 32 57 63 43 43 58 53 65 43 7 -9 8 -7 4 6 -4 11 -1 23 5 27 6 4 -52 39
-137 83 -201 104 -982 496 -988 496 -2 0 -16 -35 -30 -77z"/>
<path d="M1780 3051 c0 -133 -2 -151 -17 -159 -10 -5 -143 -51 -295 -103 -153
-52 -278 -96 -278 -99 0 -3 133 -49 295 -103 l295 -99 0 -174 c0 -96 -4 -174
-9 -174 -7 0 -606 241 -780 315 -35 14 -65 25 -67 23 -4 -4 967 -489 977 -488
4 0 9 10 12 23 2 12 70 230 151 484 80 254 146 465 146 470 0 5 -33 25 -72 45
-40 21 -137 71 -215 113 l-143 76 0 -150z"/>
</g>
</svg>
