<?xml version="1.0" standalone="no"?>
<!DOCTYPE svg PUBLIC "-//W3C//DTD SVG 20010904//EN"
 "http://www.w3.org/TR/2001/REC-SVG-20010904/DTD/svg10.dtd">
<svg version="1.0" xmlns="http://www.w3.org/2000/svg"
 width="880.000000pt" height="489.000000pt" viewBox="0 0 880.000000 489.000000"
 preserveAspectRatio="xMidYMid meet">

<g transform="translate(0.000000,489.000000) scale(0.100000,-0.100000)"
fill="#000000" stroke="none">
<path d="M3020 4474 c-227 -18 -428 -55 -595 -109 -216 -71 -465 -207 -645
-352 -96 -77 -268 -256 -342 -354 -302 -403 -450 -931 -397 -1417 40 -376 176
-725 394 -1017 75 -100 246 -278 345 -358 247 -199 567 -350 875 -412 253 -51
234 -50 1755 -50 1519 0 1482 -1 1735 50 311 63 626 211 875 412 96 77 268
256 342 354 538 718 541 1710 7 2429 -77 104 -247 281 -349 363 -247 199 -566
350 -875 412 -246 50 -201 48 -1680 50 -770 1 -1420 0 -1445 -1z m2858 -1377
c325 -88 532 -344 532 -657 0 -313 -207 -569 -532 -657 -58 -16 -174 -18
-1423 -21 -1443 -3 -1465 -2 -1605 44 -459 153 -611 726 -286 1081 109 119
263 198 431 222 33 5 681 8 1440 7 1271 -2 1385 -3 1443 -19z"/>
</g>
</svg>
