<?xml version="1.0" standalone="no"?>
<!DOCTYPE svg PUBLIC "-//W3C//DTD SVG 20010904//EN"
 "http://www.w3.org/TR/2001/REC-SVG-20010904/DTD/svg10.dtd">
<svg version="1.0" xmlns="http://www.w3.org/2000/svg"
 width="781.000000pt" height="781.000000pt" viewBox="0 0 781.000000 781.000000"
 preserveAspectRatio="xMidYMid meet">

<g transform="translate(0.000000,781.000000) scale(0.100000,-0.100000)"
fill="#000000" stroke="none">
<path d="M2392 6497 l-1492 -872 0 -723 c0 -398 3 -721 8 -719 4 2 679 392
1499 866 l1493 863 52 -30 c29 -16 703 -404 1497 -861 794 -457 1446 -831
1448 -831 2 0 2 325 1 721 l-3 722 -1470 849 c-808 467 -1486 857 -1506 868
l-35 18 -1492 -871z"/>
<path d="M902 2913 l3 -726 1505 -869 c910 -525 1511 -866 1520 -863 8 4 680
394 1492 868 l1477 862 1 723 0 724 -32 -20 c-287 -174 -2955 -1702 -2967
-1699 -13 3 -2347 1345 -2884 1658 l-117 68 2 -726z"/>
</g>
</svg>
